<?xml version="1.0" encoding="iso-8859-1"?>
<!-- Generator: Adobe Illustrator 19.0.0, SVG Export Plug-In . SVG Version: 6.00 Build 0)  -->
<svg version="1.1" id="Layer_1" xmlns="http://www.w3.org/2000/svg" xmlns:xlink="http://www.w3.org/1999/xlink" x="0px" y="0px"
	 viewBox="0 0 397.902 397.902" style="enable-background:new 0 0 397.902 397.902;" xml:space="preserve">
<g>
	<rect x="0.399" y="379.903" style="fill:#B3B3B3;" width="397.105" height="17.999"/>
	<polygon style="fill:#E6E6E6;" points="246.194,379.9 44.904,379.9 47.074,355.6 53.774,280.84 59.534,216.4 66.224,141.63 
		68.794,112.89 69.634,103.56 221.464,103.56 222.294,112.89 225.794,151.97 231.174,212.09 237.414,281.85 242.794,341.96 	"/>
	<polygon style="fill:#F93030;" points="145.547,0 145.547,0 80.138,26.28 210.956,26.28 	"/>
	<rect x="92.547" y="26.28" style="fill:#E6E6E6;" width="106" height="51"/>
	<polygon style="fill:#F93030;" points="242.794,341.96 144.894,379.9 44.904,379.9 47.074,355.6 237.414,281.85 	"/>
	<polygon style="fill:#F93030;" points="231.174,212.09 53.774,280.84 59.534,216.4 225.794,151.97 	"/>
	<polygon style="fill:#F93030;" points="164.464,103.56 66.224,141.63 69.634,103.56 	"/>
	<rect x="198.044" y="273.41" style="fill:#C69C6D;" width="146.99" height="106.49"/>
	<g>
		<rect x="97.214" y="33.946" style="fill:#2D4151;" width="12.667" height="34.667"/>
		<rect x="119.881" y="33.946" style="fill:#2D4151;" width="51.333" height="34.667"/>
		<rect x="181.214" y="33.946" style="fill:#2D4151;" width="12.667" height="34.667"/>
	</g>
	<polygon style="opacity:0.34;fill:#2D4151;enable-background:new    ;" points="222.294,112.89 68.794,112.89 69.634,103.56 
		221.464,103.56 	"/>
	<path style="fill:#2D4151;" d="M122.954,321.61v58.29h-55.33v-58.29c0-7.59,3.05-14.46,8-19.46c5.01-5.06,11.97-8.2,19.66-8.2
		C110.564,293.95,122.954,306.33,122.954,321.61z"/>
	<path style="fill:#B3B3B3;" d="M99.944,294.35c-5.82,0.98-11.02,3.79-14.99,7.8c-4.95,5-8,11.87-8,19.46v58.29h-9.33v-58.29
		c0-7.59,3.05-14.46,8-19.46c5.01-5.06,11.97-8.2,19.66-8.2C96.874,293.95,98.434,294.08,99.944,294.35z"/>
	<rect x="276.786" y="293.946" style="fill:#A67C52;" width="55.333" height="85.957"/>
	<rect x="281.786" y="298.946" style="fill:#936134;" width="45.333" height="80.957"/>
	<rect x="285.954" y="337.28" style="fill:#C69C6D;" width="15" height="6"/>
	<rect x="216.954" y="293.946" style="fill:#A67C52;" width="38.332" height="56.833"/>
	<rect x="221.954" y="298.946" style="fill:#2D4151;" width="28.332" height="46.833"/>
	<rect x="233.62" y="296.446" style="fill:#A67C52;" width="5" height="51.833"/>
	<rect x="219.204" y="319.863" style="fill:#A67C52;" width="34.5" height="5"/>
	<rect x="198.044" y="273.41" style="fill:#B78B5E;" width="146.99" height="4.25"/>
	<rect x="292.953" y="308.28" style="fill:#2D4151;" width="23" height="9"/>
	<rect x="92.547" y="26.28" style="opacity:0.34;fill:#2D4151;enable-background:new    ;" width="106" height="6"/>
	<path style="opacity:0.2;fill:#FCFAFA;enable-background:new    ;" d="M122.856,66.558h45.409V40.582
		C168.264,40.582,160.972,63.376,122.856,66.558z"/>
	<rect x="55.888" y="75.869" style="fill:#B3B3B3;" width="179.319" height="29.101"/>
	<g>
		<path style="fill:#FFFFFF;" d="M67.647,97.935V82.83h1.888v13.416h7.925v1.689C77.46,97.935,67.647,97.935,67.647,97.935z"/>
		<path style="fill:#FFFFFF;" d="M82.901,97.935V82.83h1.888v15.105H82.901z"/>
		<path style="fill:#FFFFFF;" d="M90.678,90.383c0-2.369,0.58-4.273,1.739-5.714c1.176-1.424,2.733-2.137,4.671-2.137
			c1.441,0,2.716,0.447,3.826,1.342c1.109,0.911,1.789,2.07,2.037,3.478l-1.888,0.199c-0.166-0.96-0.63-1.755-1.392-2.385
			c-0.745-0.629-1.606-0.944-2.583-0.944c-1.375,0-2.468,0.563-3.28,1.689c-0.828,1.11-1.242,2.601-1.242,4.472
			c0,1.822,0.414,3.288,1.242,4.397c0.812,1.093,1.905,1.64,3.28,1.64c1.258,0,2.269-0.43,3.031-1.292
			c0.762-0.845,1.143-1.979,1.143-3.403h-4.174v-1.864h6.062v7.702h-1.342l-0.273-1.615c-0.481,0.696-1.127,1.234-1.938,1.615
			c-0.779,0.364-1.615,0.546-2.509,0.546c-1.938,0-3.495-0.704-4.671-2.112C91.257,94.59,90.678,92.718,90.678,90.383z"/>
		<path style="fill:#FFFFFF;" d="M109.212,97.935V82.83h1.888v6.236h7.553V82.83h1.888v15.105h-1.888v-7.18H111.1v7.18H109.212z"/>
		<path style="fill:#FFFFFF;" d="M125.982,84.519V82.83h11.329v1.689h-4.745v13.416h-1.888V84.519H125.982z"/>
		<path style="fill:#FFFFFF;" d="M142.728,97.935V82.83h1.888v6.236h7.553V82.83h1.888v15.105h-1.888v-7.18h-7.553v7.18H142.728z"/>
		<path style="fill:#FFFFFF;" d="M159.92,90.383c0-2.369,0.621-4.273,1.863-5.714c1.243-1.424,2.89-2.137,4.944-2.137
			s3.693,0.712,4.919,2.137c1.242,1.441,1.863,3.346,1.863,5.714c0,2.335-0.621,4.207-1.863,5.615
			c-1.226,1.408-2.866,2.112-4.919,2.112c-2.054,0-3.702-0.704-4.944-2.112C160.541,94.59,159.92,92.718,159.92,90.383z
			 M161.808,90.383c0,1.822,0.447,3.288,1.342,4.397c0.895,1.093,2.087,1.64,3.578,1.64c1.474,0,2.658-0.546,3.553-1.64
			c0.895-1.109,1.342-2.575,1.342-4.397c0-1.872-0.447-3.362-1.342-4.472c-0.895-1.126-2.079-1.689-3.553-1.689
			c-1.491,0-2.683,0.563-3.578,1.689C162.255,87.02,161.808,88.511,161.808,90.383z"/>
		<path style="fill:#FFFFFF;" d="M179.175,93.413V82.83h1.888v10.583c0,0.895,0.389,1.632,1.167,2.211
			c0.729,0.53,1.599,0.795,2.609,0.795s1.88-0.265,2.609-0.795c0.778-0.58,1.167-1.317,1.167-2.211V82.83h1.888v10.583
			c0,1.375-0.58,2.51-1.739,3.404c-1.093,0.861-2.401,1.292-3.925,1.292s-2.833-0.431-3.925-1.292
			C179.754,95.923,179.175,94.788,179.175,93.413z"/>
		<path style="fill:#FFFFFF;" d="M195.994,92.842h1.888c0,1.143,0.348,2.054,1.043,2.733c0.679,0.696,1.59,1.043,2.733,1.043
			s2.054-0.256,2.732-0.77c0.696-0.513,1.044-1.201,1.044-2.062c0-0.778-0.406-1.399-1.217-1.863
			c-0.596-0.332-1.45-0.597-2.559-0.795c-1.474-0.265-2.692-0.753-3.652-1.466c-1.093-0.828-1.64-1.847-1.64-3.056
			c0-1.226,0.48-2.211,1.441-2.957c0.96-0.746,2.244-1.118,3.851-1.118c1.606,0,2.89,0.439,3.851,1.317s1.441,2.046,1.441,3.503
			h-1.889c-0.166-0.944-0.555-1.706-1.167-2.286c-0.629-0.563-1.375-0.845-2.236-0.845c-1.027,0-1.855,0.215-2.484,0.646
			c-0.613,0.431-0.919,1.011-0.919,1.739c0,0.762,0.356,1.4,1.068,1.913c0.596,0.447,1.375,0.754,2.335,0.919
			c1.64,0.282,2.923,0.712,3.851,1.292c1.209,0.729,1.813,1.689,1.813,2.882c0,1.424-0.514,2.559-1.54,3.403
			c-1.044,0.862-2.418,1.292-4.124,1.292s-3.081-0.497-4.124-1.491C196.507,95.823,195.994,94.499,195.994,92.842z"/>
		<path style="fill:#FFFFFF;" d="M213.062,97.935V82.83h10.386v1.789h-8.497v4.621h7.553v1.789h-7.553v5.118h8.497v1.789h-10.386
			V97.935z"/>
	</g>
	<polygon style="fill:#A67C52;" points="366.784,274.91 176.304,274.91 271.544,236.64 	"/>
	<polygon style="fill:#936134;" points="366.784,274.91 271.544,274.91 271.544,236.64 	"/>
</g>
<g>
</g>
<g>
</g>
<g>
</g>
<g>
</g>
<g>
</g>
<g>
</g>
<g>
</g>
<g>
</g>
<g>
</g>
<g>
</g>
<g>
</g>
<g>
</g>
<g>
</g>
<g>
</g>
<g>
</g>
</svg>
